<?xml version="1.0" standalone="no"?>
<!DOCTYPE svg PUBLIC "-//W3C//DTD SVG 20010904//EN"
 "http://www.w3.org/TR/2001/REC-SVG-20010904/DTD/svg10.dtd">
<svg version="1.0" xmlns="http://www.w3.org/2000/svg"
 width="600.000000pt" height="600.000000pt" viewBox="0 0 600.000000 600.000000"
 preserveAspectRatio="xMidYMid meet">
<g transform="translate(0.000000,600.000000) scale(0.100000,-0.100000)"
fill="#000000" stroke="none">
<path d="M2855 5323 c-157 -10 -421 -60 -571 -109 -676 -219 -1211 -714 -1474
-1365 -117 -288 -170 -563 -170 -879 0 -322 53 -603 167 -883 125 -311 283
-548 522 -788 182 -181 324 -288 547 -413 442 -246 1005 -339 1524 -250 235
40 436 106 650 213 709 354 1191 1029 1296 1811 16 123 18 425 4 555 -96 860
-640 1590 -1434 1926 -331 139 -709 204 -1061 182z m520 -53 c55 -11 105 -18
112 -16 7 3 15 1 17 -3 3 -5 25 -11 48 -15 49 -8 73 -15 215 -64 56 -20 99
-40 96 -45 -3 -6 -1 -7 6 -3 6 4 19 2 28 -6 14 -11 16 -11 9 0 -7 11 -4 12 12
3 12 -6 24 -16 27 -21 3 -6 15 -10 26 -10 11 0 17 -4 14 -10 -3 -6 1 -7 9 -4
9 3 16 1 16 -5 0 -6 3 -10 8 -9 10 3 115 -52 192 -100 36 -22 88 -55 117 -73
29 -18 50 -36 47 -41 -3 -4 2 -8 11 -8 21 0 126 -85 117 -95 -4 -5 2 -5 13 -1
11 4 17 4 13 1 -3 -4 14 -25 38 -47 24 -22 41 -45 37 -51 -3 -5 -1 -7 5 -3 6
3 17 -1 25 -9 9 -8 21 -15 28 -15 8 0 8 -5 -2 -17 -7 -10 -10 -15 -5 -11 10 9
46 -9 46 -22 0 -5 23 -31 51 -57 28 -26 57 -61 65 -76 8 -15 28 -40 44 -55 21
-21 26 -32 19 -44 -6 -11 -5 -19 2 -24 8 -4 9 -3 5 4 -4 7 -1 12 6 12 7 0 29
-26 47 -57 19 -32 38 -60 42 -63 4 -3 24 -36 44 -75 21 -38 50 -92 65 -120 15
-27 25 -56 22 -64 -3 -8 0 -11 7 -7 6 4 11 1 11 -9 0 -9 7 -27 16 -40 9 -14
14 -32 10 -40 -4 -11 -2 -14 6 -9 7 5 9 0 6 -14 -4 -14 -2 -19 6 -16 7 3 13
-1 13 -8 1 -7 11 -38 23 -68 11 -30 23 -69 26 -87 2 -17 8 -42 13 -55 4 -13 6
-29 3 -37 -3 -8 0 -11 7 -7 7 5 11 -1 12 -16 3 -46 6 -66 14 -78 7 -11 28
-132 41 -245 12 -94 15 -378 5 -475 -12 -118 -33 -239 -56 -326 -9 -33 -18
-68 -19 -80 -4 -32 -39 -123 -45 -119 -3 1 -6 -9 -7 -23 -1 -15 -11 -49 -24
-77 -12 -27 -23 -54 -25 -60 -8 -37 -18 -65 -24 -65 -4 0 -15 -22 -25 -50 -10
-27 -22 -47 -27 -44 -5 3 -9 -2 -9 -10 0 -26 -2 -30 -26 -59 -13 -16 -24 -34
-24 -40 0 -12 -67 -117 -80 -127 -4 -3 -16 -22 -27 -42 -11 -21 -23 -35 -27
-31 -3 3 -6 0 -6 -9 0 -16 -20 -42 -93 -120 -26 -28 -47 -54 -47 -58 0 -3 -37
-42 -82 -85 -44 -44 -96 -94 -114 -112 -18 -17 -35 -29 -38 -26 -3 4 -6 1 -6
-5 0 -7 -10 -12 -22 -12 -19 0 -20 -2 -8 -10 8 -5 11 -10 5 -10 -5 0 -30 -17
-54 -38 -24 -20 -47 -37 -50 -37 -7 -1 -63 -36 -71 -45 -10 -11 -137 -85 -195
-115 -33 -16 -61 -33 -63 -37 -2 -5 -8 -8 -13 -8 -5 0 -41 -16 -80 -35 -39
-19 -76 -32 -82 -28 -6 3 -7 1 -3 -5 4 -8 -1 -12 -13 -13 -30 -2 -32 -3 -68
-22 -18 -10 -33 -15 -33 -12 0 3 -15 -1 -32 -8 -18 -8 -51 -18 -73 -22 -44 -9
-44 -9 -65 -18 -26 -10 -228 -46 -300 -53 -25 -3 -56 -7 -68 -10 -18 -3 -22
-1 -16 8 6 10 4 10 -9 -1 -13 -11 -60 -12 -234 -8 -120 3 -234 8 -253 11 -19
3 -50 8 -69 11 -161 25 -478 114 -463 130 4 5 -1 5 -11 2 -10 -4 -31 2 -50 13
-17 11 -39 22 -47 26 -58 22 -100 46 -100 56 0 9 -3 8 -10 -2 -6 -10 -10 -11
-10 -2 0 6 -8 12 -19 12 -10 0 -24 7 -31 15 -7 8 -16 15 -21 15 -19 0 -99 57
-92 65 5 4 2 5 -5 1 -14 -9 -45 12 -37 24 3 5 -3 6 -12 4 -11 -3 -38 12 -68
36 -27 23 -58 48 -67 55 -10 8 -18 12 -18 8 0 -4 -9 2 -19 13 -11 10 -38 35
-61 54 -23 19 -64 56 -91 81 -26 26 -50 45 -51 43 -2 -1 -12 10 -23 26 -11 16
-30 34 -42 41 -12 7 -21 15 -18 18 2 4 -21 33 -51 65 -40 42 -54 64 -50 78 2
11 2 17 -1 14 -8 -8 -43 12 -43 25 0 5 -9 19 -20 31 -11 12 -20 28 -20 35 0 8
-4 12 -9 9 -14 -9 -21 20 -8 33 9 9 8 11 -6 5 -13 -5 -20 -1 -24 15 -3 11 -9
21 -13 21 -13 0 -52 82 -46 97 3 8 1 11 -4 8 -6 -4 -19 12 -29 34 -10 23 -22
38 -27 33 -4 -4 -2 2 6 12 8 11 10 17 5 14 -6 -4 -25 22 -44 60 -18 37 -40 80
-49 96 -12 23 -12 27 -1 21 10 -6 9 -3 -2 11 -23 28 -42 81 -35 99 3 8 0 14
-6 12 -13 -2 -51 121 -52 170 -1 17 -4 30 -7 28 -7 -5 -30 106 -23 116 3 5 1
9 -4 9 -6 0 -10 10 -10 23 0 12 -2 38 -5 57 -32 197 -33 512 -3 676 8 43 18
97 21 120 3 22 10 56 15 75 6 19 10 46 10 61 0 16 4 28 9 28 6 0 15 27 22 61
7 33 18 67 26 75 8 7 12 17 9 22 -2 4 1 21 9 37 7 17 26 63 42 103 16 39 31
70 34 68 2 -2 5 6 5 19 1 14 9 31 18 40 9 9 19 27 22 41 4 13 15 29 25 35 11
5 17 14 14 19 -6 9 21 59 38 71 5 3 8 10 6 14 -2 8 18 40 44 67 9 10 17 24 17
31 0 7 16 31 35 53 19 21 38 47 41 57 3 9 10 15 15 12 5 -4 9 0 9 9 0 8 12 24
28 36 15 12 20 19 12 15 -13 -6 -13 -5 0 7 8 7 31 31 49 53 19 22 39 39 44 37
5 -1 6 2 2 7 -3 6 8 17 25 26 16 8 30 18 30 21 0 3 -6 2 -12 -2 -7 -4 -4 2 7
13 11 11 28 19 37 17 11 -2 15 2 11 11 -5 15 15 41 32 42 6 0 15 10 21 22 6
12 15 22 18 21 4 -1 27 16 51 37 60 53 137 108 147 106 4 -2 8 1 8 6 0 5 8 12
18 15 10 4 29 16 43 29 13 12 26 22 29 23 13 2 47 18 60 29 34 28 172 95 182
89 6 -4 8 -2 4 4 -6 10 22 24 56 27 10 1 26 9 37 19 10 9 22 16 27 15 5 -1 26
5 46 14 20 9 43 15 50 14 7 -2 9 -1 3 1 -13 7 158 61 215 68 24 3 48 8 52 11
5 2 21 6 36 8 15 3 38 7 52 10 172 40 605 43 785 5z"/>
<path d="M3197 5149 c7 -7 15 -10 18 -7 3 3 -2 9 -12 12 -14 6 -15 5 -6 -5z"/>
<path d="M2836 5138 c2 -3 -23 -5 -56 -4 -33 2 -60 0 -60 -4 0 -4 -26 -10 -57
-14 -113 -13 -129 -16 -211 -40 -45 -14 -90 -23 -100 -20 -15 5 -15 4 -2 -6
12 -9 10 -11 -12 -7 -15 2 -25 0 -22 -4 3 -5 -1 -9 -8 -9 -7 0 -26 -7 -41 -15
-15 -8 -25 -9 -21 -3 4 6 -6 4 -22 -5 -34 -19 -84 -41 -99 -42 -6 0 -26 -10
-45 -22 -19 -11 -46 -24 -60 -28 -14 -4 -51 -25 -82 -46 -32 -22 -58 -34 -58
-27 0 7 -7 3 -15 -9 -8 -11 -34 -31 -57 -43 -23 -12 -50 -31 -59 -42 -10 -10
-19 -18 -22 -16 -5 4 -55 -35 -119 -92 -28 -25 -59 -51 -68 -57 -21 -15 -155
-150 -188 -190 -52 -63 -62 -76 -62 -85 0 -4 -8 -8 -17 -8 -9 0 -13 -3 -10 -6
12 -12 -54 -86 -72 -80 -13 5 -12 3 2 -8 12 -9 14 -16 8 -21 -6 -3 -11 -3 -11
2 -1 4 -7 -7 -15 -24 -8 -18 -19 -33 -24 -33 -6 0 -8 -8 -4 -17 3 -10 2 -15
-2 -10 -11 9 -57 -72 -48 -86 3 -6 1 -7 -5 -3 -8 5 -12 0 -12 -13 0 -10 -3
-21 -8 -23 -11 -4 -77 -141 -76 -155 1 -7 -3 -10 -8 -7 -5 3 -8 0 -7 -7 2 -8
-4 -28 -14 -45 -9 -17 -13 -35 -9 -39 4 -5 2 -5 -5 -1 -6 3 -14 2 -18 -4 -3
-5 -2 -10 3 -10 6 0 1 -28 -10 -62 -26 -82 -66 -234 -74 -278 -3 -19 -6 -42
-8 -50 -7 -43 -16 -110 -21 -150 -10 -86 -5 -336 9 -470 8 -73 12 -138 9 -144
-4 -5 -1 -6 7 -1 10 6 12 4 7 -8 -20 -48 -20 -52 -4 -32 15 19 15 19 15 -5 0
-30 10 -77 22 -105 5 -11 12 -33 16 -50 11 -47 11 -47 33 -109 11 -32 18 -63
14 -69 -3 -6 -1 -7 5 -3 7 4 12 1 12 -6 0 -7 7 -26 15 -41 8 -15 10 -25 4 -22
-5 4 2 -10 16 -31 14 -20 25 -43 25 -50 0 -8 5 -14 11 -14 6 0 9 -7 6 -15 -4
-8 -3 -16 1 -19 5 -3 26 -39 47 -80 21 -41 42 -73 47 -70 4 3 9 0 9 -5 1 -6 2
-15 3 -20 0 -6 7 -16 14 -22 6 -7 12 -19 12 -27 0 -7 5 -10 10 -7 6 3 10 0 10
-8 0 -7 9 -23 20 -35 11 -12 20 -26 20 -32 0 -5 4 -10 10 -10 5 0 17 -15 26
-32 9 -18 22 -36 28 -40 6 -4 11 -11 11 -16 0 -10 250 -262 260 -262 7 0 22
-12 76 -62 10 -10 19 -15 19 -11 0 4 7 -2 15 -13 8 -12 28 -27 45 -34 16 -7
30 -16 30 -20 0 -4 9 -10 21 -13 13 -4 18 -10 13 -18 -4 -8 -3 -10 4 -5 7 4
12 2 12 -3 0 -6 7 -11 16 -11 9 0 29 -11 46 -25 16 -14 36 -25 44 -25 9 0 12
-5 8 -12 -5 -7 -3 -8 5 -4 7 5 20 1 29 -7 9 -9 29 -19 44 -22 16 -4 26 -10 23
-15 -2 -4 15 -13 38 -20 23 -7 44 -15 47 -19 3 -4 34 -18 70 -31 36 -13 76
-30 90 -37 14 -7 33 -13 42 -13 10 0 41 -9 69 -20 29 -12 58 -19 66 -16 8 4
11 1 7 -5 -4 -8 1 -9 15 -4 11 3 21 2 21 -3 0 -8 57 -20 130 -26 14 -1 31 -5
38 -9 41 -26 653 -30 668 -5 3 4 16 8 29 8 13 0 50 7 82 15 32 9 69 18 83 19
14 2 65 16 114 30 49 14 93 23 97 20 5 -3 9 -1 9 5 0 11 56 41 79 41 9 0 31 9
49 20 18 11 41 20 51 20 10 0 24 7 31 15 7 8 16 12 21 9 5 -3 9 -1 9 4 0 5 23
19 50 32 28 13 56 30 61 37 6 7 15 10 20 7 5 -3 9 -1 9 4 0 6 11 12 23 16 13
3 37 18 52 33 16 16 25 21 21 13 -4 -8 1 -5 12 7 11 12 22 19 26 16 3 -4 6 -1
6 6 0 8 8 10 23 6 14 -4 17 -3 9 2 -9 7 -5 15 15 33 16 14 34 25 40 26 14 2
48 32 130 110 29 28 55 48 59 45 3 -3 4 -1 2 4 -3 10 38 57 46 53 2 -2 8 1 13
6 5 6 2 6 -7 1 -8 -5 -4 3 10 16 49 49 108 118 103 122 -2 3 10 15 27 27 17
12 29 25 26 28 -3 3 2 11 12 19 11 10 12 12 2 8 -10 -4 -10 -2 2 8 10 7 22 26
28 41 6 17 14 24 22 20 6 -4 8 -3 5 3 -4 6 0 16 8 23 8 7 15 19 15 26 0 8 3
14 8 14 8 0 9 3 60 101 18 35 37 71 43 79 9 14 52 110 54 120 4 23 18 50 26
50 5 0 9 8 9 19 0 10 7 38 16 62 8 24 17 51 20 59 17 65 43 170 48 193 4 18
11 25 19 21 9 -5 9 -4 0 7 -14 14 -18 33 -5 26 4 -3 7 9 8 26 0 18 6 73 12
122 7 50 12 123 12 163 0 40 5 83 11 94 8 15 8 19 0 13 -9 -5 -11 7 -7 42 2
27 -2 96 -10 153 -7 58 -16 128 -19 155 -3 28 -9 59 -14 70 -9 21 -34 120 -36
145 -1 8 -7 25 -13 37 -14 26 -15 36 -3 29 5 -4 0 13 -11 36 -11 23 -21 52
-22 64 0 12 -4 20 -8 17 -5 -2 -8 3 -8 12 0 9 -5 26 -12 38 -7 12 -13 28 -14
35 -4 22 -34 81 -44 87 -6 3 -10 15 -10 26 0 10 -4 19 -9 19 -4 0 -18 27 -30
60 -12 33 -26 60 -30 60 -5 0 -12 11 -15 25 -4 16 -11 23 -18 19 -8 -5 -9 -2
-5 10 4 9 3 15 -2 12 -5 -3 -14 7 -21 23 -6 16 -19 32 -27 36 -14 5 -14 8 3
21 10 9 14 13 7 10 -15 -8 -44 4 -37 15 3 5 1 9 -3 9 -5 0 -28 27 -53 61 -24
33 -54 72 -66 87 -13 14 -20 31 -17 36 3 6 3 8 -2 4 -4 -4 -14 0 -22 10 -10
11 -12 12 -8 2 4 -8 -2 -4 -13 10 -11 13 -18 29 -15 34 3 5 1 6 -4 3 -6 -4
-32 17 -59 46 -26 28 -88 83 -138 121 -108 81 -106 79 -81 70 11 -4 17 -4 13
0 -3 4 -14 9 -23 10 -9 1 -21 9 -26 17 -5 8 -9 10 -9 5 0 -5 -8 0 -17 10 -10
10 -25 20 -33 22 -8 2 -20 10 -26 18 -6 7 -18 14 -26 14 -8 0 -37 16 -64 35
-27 19 -55 35 -63 35 -10 0 -11 4 -3 13 8 9 2 12 -24 13 -18 0 -42 8 -53 18
-11 10 -25 15 -30 11 -6 -3 -11 2 -12 12 0 11 -3 13 -6 5 -3 -8 -9 -9 -16 -4
-29 21 -196 82 -322 117 -70 20 -85 23 -143 30 -24 3 -62 9 -85 14 -86 19
-501 35 -491 19z m458 -38 c478 -68 891 -274 1231 -615 330 -329 529 -720 612
-1200 27 -158 24 -511 -5 -677 -135 -759 -628 -1366 -1340 -1652 -558 -224
-1213 -196 -1756 76 -202 101 -365 218 -536 384 -195 190 -317 358 -435 599
-143 292 -208 552 -221 880 -35 845 453 1644 1231 2016 374 179 812 247 1219
189z"/>
<path d="M2800 4730 c-14 -4 -76 -15 -138 -25 -61 -10 -109 -22 -106 -26 3 -5
13 -9 24 -9 21 0 21 -1 51 -184 l22 -138 -24 -20 -24 -20 30 6 c17 3 54 9 83
12 56 7 69 21 25 26 -24 3 -28 9 -35 48 -4 25 -10 60 -13 78 -6 33 -6 33 32
30 30 -2 41 -9 51 -31 21 -44 25 -26 11 57 -12 73 -29 94 -29 37 0 -22 -7 -31
-30 -41 -17 -7 -33 -10 -37 -7 -8 9 -22 86 -23 129 0 34 3 38 33 43 63 12 90
3 109 -35 10 -19 20 -39 22 -45 2 -5 6 -8 9 -5 2 3 0 32 -7 66 -11 58 -12 60
-36 54z m-157 -67 c-3 -7 -9 -10 -14 -7 -14 8 -11 21 5 21 8 0 12 -6 9 -14z
m4 -60 c-3 -10 -5 -4 -5 12 0 17 2 24 5 18 2 -7 2 -21 0 -30z m11 -71 c0 -15
5 -40 11 -56 6 -16 10 -31 7 -33 -5 -6 -28 64 -32 100 -2 15 0 25 5 22 6 -3 9
-18 9 -33z m27 -132 c-3 -5 -1 -18 4 -29 8 -14 7 -20 -2 -24 -8 -3 -12 8 -13
34 0 21 3 36 8 33 5 -3 6 -9 3 -14z"/>
<path d="M2970 4628 c-13 -7 -35 -29 -48 -48 -21 -30 -23 -44 -20 -104 3 -62
7 -71 36 -97 59 -53 163 -34 196 35 32 67 13 168 -38 201 -34 23 -95 29 -126
13z m95 -32 c9 -14 19 -48 21 -78 11 -114 -45 -194 -99 -140 -19 20 -22 33
-22 111 0 73 3 93 19 110 26 28 62 27 81 -3z m-131 -136 c4 -25 3 -31 -4 -20
-5 8 -10 26 -10 39 0 32 6 24 14 -19z m183 18 c-3 -8 -6 -5 -6 6 -1 11 2 17 5
13 3 -3 4 -12 1 -19z"/>
<path d="M3210 4619 c0 -7 7 -17 15 -23 12 -10 12 -23 -2 -106 -9 -52 -14
-107 -10 -121 11 -45 82 -63 126 -32 23 16 24 16 19 -4 -5 -17 2 -21 51 -31
32 -5 80 -21 109 -35 51 -24 77 -25 45 -2 -16 12 -15 18 11 81 15 38 34 79 42
92 17 26 57 44 79 36 35 -14 34 -38 -5 -134 -29 -74 -42 -96 -59 -98 -34 -5
-24 -16 36 -39 53 -21 85 -23 54 -4 -17 11 -12 35 23 118 41 96 43 117 13 147
-19 19 -36 26 -66 26 -22 0 -43 -4 -46 -10 -12 -19 -26 -11 -15 9 13 25 13 31
-2 31 -7 0 -26 7 -42 15 -34 18 -45 12 -24 -12 15 -17 13 -26 -23 -113 -22
-52 -45 -97 -51 -101 -18 -11 -68 11 -68 31 0 10 9 62 20 115 11 53 20 103 20
110 0 8 -17 15 -42 17 -51 6 -58 2 -34 -15 17 -12 17 -17 0 -100 -17 -91 -42
-127 -84 -127 -40 0 -44 24 -21 138 26 133 26 132 -5 132 -14 0 -34 5 -45 10
-14 8 -19 7 -19 -1z m52 -61 c-8 -8 -9 -4 -5 13 4 13 8 18 11 10 2 -7 -1 -18
-6 -23z m176 -33 c-3 -3 -9 2 -12 12 -6 14 -5 15 5 6 7 -7 10 -15 7 -18z m152
-81 c-15 -26 -20 -30 -15 -14 3 14 7 30 7 37 1 7 5 10 10 7 4 -3 8 0 8 7 0 7
3 10 6 7 3 -3 -5 -23 -16 -44z m-179 -1 c-12 -20 -14 -14 -5 12 4 9 9 14 11
11 3 -2 0 -13 -6 -23z m-170 -30 c-12 -20 -14 -14 -5 12 4 9 9 14 11 11 3 -2
0 -13 -6 -23z m309 -62 c-23 -46 -35 -55 -20 -15 16 40 31 66 37 61 2 -3 -5
-23 -17 -46z m-152 13 c0 -15 -4 -22 -10 -16 -5 5 -6 16 -2 25 9 23 12 21 12
-9z m317 -51 c-5 -10 -7 -22 -6 -26 1 -5 -3 -6 -8 -3 -5 4 -5 16 2 30 13 28
24 27 12 -1z m-20 -42 c3 -5 1 -12 -5 -16 -5 -3 -10 1 -10 9 0 18 6 21 15 7z"/>
<path d="M2248 4594 c-39 -20 -51 -47 -33 -70 11 -15 17 -17 32 -8 23 14 29
44 12 55 -19 12 14 23 45 15 56 -14 43 -51 -55 -152 -58 -61 -69 -77 -69 -106
0 -66 73 -93 119 -44 25 27 25 53 -1 70 -14 8 -21 7 -33 -5 -18 -18 -11 -46
13 -52 13 -3 11 -7 -10 -17 -22 -10 -30 -11 -43 0 -25 21 -17 54 24 94 43 42
65 42 101 3 45 -48 10 -125 -76 -164 -70 -32 -117 -27 -156 17 -30 33 -34 55
-16 95 7 16 19 25 34 25 27 0 36 11 25 29 -7 11 -14 10 -34 -4 -25 -16 -27
-16 -52 9 -41 41 -29 89 28 109 14 5 16 2 11 -18 -7 -29 18 -45 44 -28 23 14
25 29 7 47 -26 26 -80 20 -114 -11 -44 -40 -49 -76 -17 -107 14 -15 35 -26 46
-26 l21 0 -20 -26 c-25 -32 -28 -100 -5 -132 39 -55 126 -67 209 -28 62 29 89
59 105 113 11 36 10 46 -6 80 -11 22 -32 45 -51 54 l-33 16 22 19 c52 47 55
114 6 148 -28 20 -45 20 -80 0z m-103 -422 c-3 -3 -11 0 -18 7 -9 10 -8 11 6
5 10 -3 15 -9 12 -12z"/>
<path d="M4078 4419 c19 -20 15 -39 -20 -94 -27 -43 -32 -47 -38 -30 -22 57
-98 80 -153 46 -41 -25 -84 -85 -93 -129 -13 -65 39 -128 97 -120 29 5 39 -5
18 -18 -6 -3 7 -16 31 -30 42 -24 65 -25 42 -2 -7 7 -12 15 -12 19 0 4 50 78
110 164 61 87 109 158 108 159 -25 12 -85 41 -93 44 -5 3 -4 -1 3 -9z m32 -69
c-6 -12 -14 -20 -17 -17 -2 3 1 14 8 26 7 11 15 18 17 16 2 -2 -2 -13 -8 -25z
m-122 -36 c12 -8 22 -25 22 -37 0 -30 -86 -156 -113 -166 -47 -18 -84 17 -72
69 9 41 63 118 94 135 34 18 42 18 69 -1z m79 -37 c-14 -19 -23 -38 -19 -42 4
-5 1 -5 -5 -1 -8 4 -13 2 -13 -5 0 -7 -3 -9 -7 -6 -3 4 2 16 12 27 10 11 15
20 12 20 -4 0 3 11 15 25 31 36 35 22 5 -18z m-220 -1 c-12 -18 -25 -32 -30
-29 -8 5 33 61 45 62 4 1 -3 -14 -15 -33z m-34 -66 c-3 -12 -8 -19 -11 -16 -5
6 5 36 12 36 2 0 2 -9 -1 -20z m207 -7 c0 -3 -7 -13 -15 -22 -8 -9 -23 -25
-33 -36 -9 -12 -14 -16 -10 -10 4 7 5 15 1 18 -3 4 -2 7 4 7 5 0 15 11 21 25
10 23 32 35 32 18z m-76 -108 c-4 -8 -10 -12 -15 -9 -11 6 -2 24 11 24 5 0 7
-7 4 -15z"/>
<path d="M1716 4202 c-4 -12 -12 -22 -18 -22 -6 0 2 -16 17 -36 26 -34 26 -36
9 -55 -20 -22 -8 -26 16 -4 15 13 24 6 94 -70 64 -70 83 -85 107 -85 60 0 99
70 64 116 -13 18 -14 16 -12 -20 1 -27 -3 -41 -15 -49 -20 -13 -32 -4 -121 96
l-60 68 34 29 c22 19 29 29 18 30 -8 0 -26 -11 -39 -25 l-23 -25 -32 37 c-31
36 -32 37 -39 15z m42 -50 c2 -7 -2 -10 -12 -6 -9 3 -16 11 -16 16 0 13 23 5
28 -10z m36 -51 c-7 -7 -34 21 -28 31 3 5 12 1 19 -9 7 -10 12 -20 9 -22z m33
-28 c0 -9 -4 -10 -14 -2 -7 6 -13 12 -13 14 0 1 6 2 13 2 8 0 14 -6 14 -14z
m70 -78 c0 -8 -4 -12 -9 -9 -5 3 -6 10 -3 15 9 13 12 11 12 -6z"/>
<path d="M4324 4192 c4 -12 -29 -71 -98 -177 -57 -88 -101 -164 -96 -168 4 -4
62 15 130 43 67 27 124 50 127 50 2 0 -33 -54 -77 -119 -44 -66 -76 -122 -71
-125 5 -3 21 1 37 8 16 8 93 40 172 70 102 40 150 54 168 50 l26 -7 -34 46
c-18 25 -36 46 -40 46 -4 1 -4 -14 -1 -33 5 -33 4 -34 -48 -54 -30 -11 -81
-32 -113 -46 -33 -14 -61 -25 -63 -23 -5 6 136 217 145 217 4 0 13 -5 20 -12
6 -6 15 -9 18 -5 4 4 -10 25 -30 47 -20 22 -36 45 -36 50 0 6 -4 10 -10 10 -5
0 -10 -8 -10 -17 0 -44 -35 -75 -124 -114 -50 -21 -91 -37 -93 -36 -1 2 29 50
68 107 51 77 75 105 89 104 24 -1 24 -2 -15 59 -30 47 -51 62 -41 29z m36 -63
c0 -5 -9 -9 -20 -9 -13 0 -18 5 -14 14 6 15 34 11 34 -5z m-40 -40 c-7 -11
-14 -18 -17 -15 -3 3 0 12 7 21 18 21 23 19 10 -6z m-32 -43 c-7 -8 -15 -12
-17 -11 -5 6 10 25 20 25 5 0 4 -6 -3 -14z m-28 -46 c-6 -11 -15 -18 -20 -15
-6 4 -5 12 3 20 18 21 29 18 17 -5z m214 -21 c-3 -5 -10 -7 -15 -4 -5 4 -9 1
-9 -6 0 -7 -2 -10 -5 -8 -2 3 -2 15 2 27 4 18 8 20 19 11 8 -6 11 -15 8 -20z
m-238 -23 c-8 -6 -16 -17 -18 -25 -4 -17 -38 -55 -44 -49 -2 3 7 20 21 38 14
19 25 40 25 47 0 7 6 10 15 7 14 -6 14 -8 1 -18z m194 -10 c0 -8 -11 -28 -25
-44 -13 -16 -22 -32 -18 -36 3 -3 1 -6 -5 -6 -7 0 -12 -7 -12 -16 0 -8 -5 -12
-10 -9 -6 4 -3 17 10 35 11 15 20 33 20 39 0 7 7 14 15 17 8 4 15 12 15 20 0
8 2 14 5 14 3 0 5 -6 5 -14z m-83 -131 c0 -8 -13 -29 -29 -47 -15 -18 -27 -26
-26 -18 2 8 13 23 25 33 13 10 22 21 22 25 -2 11 1 22 4 22 2 0 4 -7 4 -15z"/>
<path d="M1660 4021 c0 -11 -9 -22 -20 -26 -28 -9 -60 -53 -60 -84 0 -32 31
-68 63 -76 12 -3 49 3 82 14 44 14 65 16 81 9 33 -15 37 -46 9 -74 -28 -28
-52 -30 -83 -8 -42 29 -42 3 0 -33 32 -26 43 -31 48 -21 3 8 22 29 42 47 44
39 57 81 33 117 -29 44 -54 49 -139 24 -62 -19 -78 -20 -91 -10 -18 15 -20 51
-3 68 15 15 84 16 93 2 4 -6 11 -8 16 -4 12 7 -3 27 -43 55 -28 20 -28 20 -28
0z m127 -127 c-3 -3 -12 -4 -19 -1 -8 3 -5 6 6 6 11 1 17 -2 13 -5z m53 -20
c0 -2 -9 0 -20 6 -11 6 -20 13 -20 16 0 2 9 0 20 -6 11 -6 20 -13 20 -16z
m-130 0 c-52 -16 -77 -18 -84 -5 -3 4 5 6 17 4 12 -2 33 0 47 6 14 5 34 10 45
10 11 0 0 -7 -25 -15z"/>
<path d="M2805 3821 c-199 -57 -358 -205 -424 -392 l-19 -53 -279 -93 c-289
-96 -308 -103 -308 -121 0 -5 54 -52 120 -103 66 -51 141 -109 168 -130 l47
-38 -175 -152 c-97 -84 -174 -157 -172 -163 2 -6 83 -45 180 -86 l177 -75 0
-183 0 -183 83 -39 c45 -21 264 -120 487 -220 l404 -182 466 233 465 234 3
175 2 175 197 100 c109 55 198 105 200 110 1 6 -70 66 -159 135 -89 69 -175
137 -192 151 l-30 27 153 151 c131 129 152 154 140 165 -8 7 -189 60 -402 117
l-388 104 -26 45 c-83 142 -229 252 -390 294 -82 22 -249 20 -328 -3z m290
-26 c86 -18 214 -80 277 -135 61 -53 140 -171 167 -251 27 -78 38 -230 22
-314 -17 -94 -79 -212 -151 -288 -116 -125 -263 -189 -430 -189 -180 0 -298
49 -425 177 -131 132 -181 260 -172 445 6 128 30 203 99 306 58 87 118 141
213 191 128 68 262 87 400 58z m849 -451 c192 -51 350 -95 352 -97 2 -1 -61
-67 -139 -144 l-142 -142 -165 49 c-91 28 -183 55 -205 61 l-41 10 0 122 c-1
96 -5 136 -22 185 -18 57 -19 63 -4 57 9 -4 174 -49 366 -101z m-1596 -46
c-12 -53 -2 -203 17 -259 18 -51 18 -49 0 -49 -8 0 -63 -18 -122 -39 l-106
-40 -154 119 c-85 65 -154 122 -154 125 0 6 501 182 522 184 4 1 2 -18 -3 -41z
m1464 -309 c87 -24 158 -46 158 -49 0 -3 -33 -19 -73 -37 -39 -17 -130 -57
-200 -89 l-128 -57 -39 39 -39 39 44 88 c25 49 45 97 45 106 0 27 9 30 43 17
18 -7 103 -33 189 -57z m-1395 -76 c16 -33 55 -85 90 -120 56 -57 59 -69 8
-37 -11 7 -87 38 -170 70 -147 56 -184 74 -154 74 7 0 52 15 99 34 47 19 88
35 92 35 3 1 19 -25 35 -56z m1850 -182 c62 -47 112 -88 113 -91 0 -3 -128
-69 -285 -148 -196 -97 -283 -136 -275 -123 16 31 12 93 -9 126 -11 17 -64 77
-118 135 l-99 104 180 81 c100 45 194 88 211 97 29 16 30 16 100 -39 38 -30
120 -94 182 -142z m-1912 59 c116 -44 255 -103 310 -130 55 -27 132 -57 170
-65 39 -9 105 -30 149 -47 l78 -31 -73 -66 c-41 -36 -121 -109 -178 -163
l-105 -96 -30 15 c-17 9 -217 96 -444 194 -228 97 -416 180 -419 183 -3 3 10
18 28 33 19 15 70 60 114 98 116 102 179 155 185 155 3 0 100 -36 215 -80z
m1203 -72 c200 -206 241 -255 242 -291 0 -32 -31 -78 -61 -91 -62 -26 -79 -15
-254 167 -91 94 -165 173 -165 176 0 3 13 13 29 22 l29 17 63 -64 c61 -62 89
-78 89 -51 0 7 -29 42 -65 77 l-65 64 32 33 c18 18 33 33 34 33 1 0 42 -42 92
-92z m-260 -70 c8 -8 -15 -23 -96 -60 l-107 -49 -53 18 -53 17 70 12 c78 13
198 51 206 65 8 12 19 11 33 -3z m178 -187 c79 -81 157 -154 173 -161 l30 -12
-90 -44 c-50 -24 -95 -41 -101 -38 -6 4 -91 76 -188 160 l-178 152 97 45 c53
25 100 46 105 46 5 1 73 -66 152 -148z m-370 52 c-10 -11 -37 -12 -30 -2 3 5
12 9 21 9 9 0 13 -3 9 -7z m-31 -441 l0 -417 -385 173 c-212 95 -419 188 -460
206 l-75 34 -3 167 c-2 133 0 166 10 162 7 -3 134 -57 282 -121 l270 -115 60
53 c49 43 301 274 301 276 0 0 0 -188 0 -418z m220 258 c103 -88 193 -160 201
-160 7 0 122 54 254 120 133 66 243 120 246 120 2 0 4 -70 4 -155 l0 -155
-447 -224 -448 -224 0 419 c0 231 1 419 2 419 1 0 85 -72 188 -160z"/>
<path d="M2863 3686 c-126 -31 -261 -134 -316 -241 -78 -156 -77 -329 4 -472
60 -105 185 -203 298 -233 63 -17 191 -14 258 5 167 48 304 190 342 355 80
348 -241 669 -586 586z m246 -45 c162 -50 282 -189 311 -361 28 -158 -50 -342
-183 -434 -278 -192 -647 -38 -708 296 -30 165 55 354 201 448 108 69 257 89
379 51z"/>
<path d="M2943 3510 c-76 -18 -133 -79 -133 -142 0 -27 2 -28 50 -28 46 0 50
2 50 24 0 32 44 66 84 66 45 0 76 -32 76 -77 0 -32 -8 -44 -60 -92 -59 -55
-80 -94 -80 -148 0 -21 5 -23 50 -23 49 0 50 0 50 31 0 26 13 43 69 98 53 51
71 75 76 104 17 92 -33 166 -125 186 -56 12 -61 12 -107 1z m87 -25 c24 -3 49
-10 57 -16 7 -6 13 -8 13 -4 0 4 7 2 15 -5 13 -11 13 -15 3 -21 -10 -7 -9 -9
4 -9 11 0 20 -11 24 -27 3 -16 7 -32 8 -38 7 -26 -20 -82 -52 -112 -20 -18
-39 -33 -43 -33 -10 0 -42 -52 -42 -67 0 -7 -4 -13 -9 -13 -5 0 -6 -4 -3 -10
4 -6 -5 -10 -19 -10 -20 0 -26 5 -26 20 0 27 27 80 41 80 11 0 88 76 90 88 16
84 -13 133 -85 146 -32 6 -106 -29 -106 -50 0 -21 -25 -35 -39 -21 -10 9 -11
8 -6 -5 4 -11 2 -18 -4 -18 -31 0 1 88 36 96 13 4 23 10 23 14 0 8 61 29 71
24 3 -2 25 -6 49 -9z"/>
<path d="M2937 3012 c-38 -42 -8 -102 50 -102 36 0 56 20 56 55 0 56 -71 86
-106 47z m73 -27 c11 -13 10 -18 -6 -30 -19 -15 -18 -15 1 -9 19 5 19 5 2 -6
-10 -6 -26 -8 -35 -4 -9 4 -20 6 -24 6 -5 -1 -6 8 -4 21 3 12 5 25 5 30 2 13
48 7 61 -8z"/>
<path d="M2986 2349 c-14 -29 -22 -36 -29 -27 -6 9 -7 8 -4 -4 3 -9 -1 -22 -9
-28 -8 -7 -14 -19 -14 -27 0 -8 -11 -31 -25 -51 -14 -20 -25 -43 -25 -52 0 -9
6 -5 14 10 7 14 25 46 39 71 13 25 37 65 51 88 15 23 26 46 24 51 -2 5 -12 -9
-22 -31z"/>
<path d="M2210 2300 c19 -11 40 -19 45 -19 6 0 -6 8 -25 19 -19 11 -39 19 -45
19 -5 0 6 -8 25 -19z"/>
<path d="M2270 2276 c0 -2 35 -18 78 -36 42 -18 91 -38 107 -46 17 -7 71 -30
120 -50 50 -20 124 -51 165 -69 41 -18 78 -31 83 -28 10 6 49 84 44 89 -2 2
-14 -14 -26 -37 -17 -30 -27 -39 -40 -34 -9 4 -41 16 -71 27 -30 11 -60 24
-66 29 -6 5 -39 20 -75 33 -100 39 -179 72 -186 80 -3 3 -13 6 -22 6 -9 1 -34
9 -56 20 -39 19 -55 24 -55 16z"/>
<path d="M3186 2343 c24 -43 48 -85 54 -93 13 -19 25 -40 75 -134 21 -42 43
-76 47 -76 13 0 10 10 -12 40 -11 16 -27 44 -35 62 -9 18 -20 40 -25 48 -31
49 -100 173 -100 181 0 5 -4 9 -9 9 -5 0 -13 9 -16 20 -3 11 -10 20 -15 20 -4
0 12 -35 36 -77z"/>
<path d="M3932 2313 c-18 -8 -31 -18 -28 -20 5 -5 66 25 66 32 0 7 -1 7 -38
-12z"/>
<path d="M3843 2277 c-18 -6 -33 -15 -33 -19 0 -4 -6 -8 -14 -8 -8 0 -31 -9
-51 -21 -19 -12 -42 -18 -51 -15 -8 3 -12 2 -9 -4 6 -9 -72 -47 -87 -42 -5 1
-8 -2 -8 -7 0 -6 -10 -8 -21 -6 -12 3 -19 2 -15 -2 5 -6 -19 -24 -54 -39 -75
-32 -122 -56 -118 -60 3 -2 45 14 94 37 191 89 234 108 305 140 107 46 141 72
62 46z"/>
<path d="M1465 3747 c-64 -64 -54 -152 24 -204 79 -53 156 -47 198 16 35 51
31 111 -8 156 -42 48 -78 65 -135 65 -39 0 -51 -5 -79 -33z m173 -26 c33 -31
39 -41 22 -41 -5 0 -10 6 -10 14 0 8 -16 20 -34 27 -19 7 -33 16 -30 21 8 13
18 9 52 -21z m-45 -19 c54 -29 97 -74 97 -101 0 -32 -35 -54 -75 -47 -77 15
-165 82 -165 125 1 66 48 74 143 23z m-89 -127 c3 -8 14 -15 25 -15 10 0 22
-7 25 -16 4 -12 -3 -10 -34 7 -22 13 -40 26 -40 31 0 14 18 9 24 -7z"/>
<path d="M4442 3670 c-84 -38 -118 -103 -89 -173 9 -19 26 -42 39 -50 31 -20
78 -30 78 -17 0 5 -6 10 -14 10 -8 0 -27 11 -42 23 -41 36 -38 81 9 124 20 18
42 33 49 33 7 -1 28 -34 47 -75 19 -41 37 -75 41 -75 5 0 22 13 39 29 54 50
37 142 -33 175 -44 21 -71 20 -124 -4z m78 -4 c0 -2 -7 -7 -16 -10 -8 -3 -12
-2 -9 4 6 10 25 14 25 6z m-76 -32 c-11 -7 -25 -18 -31 -24 -18 -15 -16 0 2
20 8 9 22 17 31 17 14 0 14 -2 -2 -13z m154 -6 c19 -19 14 -47 -14 -73 -15
-14 -30 -25 -33 -25 -11 0 -52 91 -46 101 9 13 79 11 93 -3z m-18 -108 c0 -5
-5 -10 -11 -10 -5 0 -7 5 -4 10 3 6 8 10 11 10 2 0 4 -4 4 -10z"/>
<path d="M4800 3500 c0 -26 -10 -30 -208 -90 -90 -27 -167 -52 -170 -55 -4 -4
1 -11 11 -17 15 -8 17 -18 12 -51 -7 -50 20 -102 61 -117 64 -25 160 -5 209
44 43 43 32 121 -21 149 -24 12 -21 14 64 36 l89 23 -16 49 c-17 51 -31 64
-31 29z m-90 -90 c-8 -5 -19 -10 -25 -10 -5 0 -3 5 5 10 8 5 20 10 25 10 6 0
3 -5 -5 -10z m-55 -20 c-11 -5 -27 -9 -35 -9 -13 -1 -13 0 0 9 8 5 24 9 35 9
l20 0 -20 -9z m-90 -20 c-3 -5 -12 -10 -18 -10 -7 0 -6 4 3 10 19 12 23 12 15
0z m129 -26 c39 -39 6 -90 -77 -118 -92 -31 -157 -11 -157 48 0 32 19 46 93
67 78 22 121 23 141 3z m-14 -118 c0 -2 -8 -10 -17 -17 -16 -13 -17 -12 -4 4
13 16 21 21 21 13z m-80 -36 c-8 -5 -19 -10 -25 -10 -5 0 -3 5 5 10 8 5 20 10
25 10 6 0 3 -5 -5 -10z"/>
<path d="M1510 3469 c0 -4 13 -16 29 -25 43 -25 51 -50 34 -107 -8 -26 -20
-50 -28 -53 -14 -6 -78 13 -232 68 -75 27 -83 32 -83 56 0 36 -9 22 -35 -53
-23 -70 -22 -86 4 -54 16 19 18 19 171 -35 132 -46 155 -57 155 -74 1 -46 12
-24 55 108 l45 139 -57 19 c-32 10 -58 15 -58 11z m-266 -121 c-3 -4 5 -8 18
-8 13 0 30 -5 38 -10 14 -10 -11 -7 -62 7 -22 5 -24 20 -3 20 8 0 12 -4 9 -9z
m130 -43 c20 -8 36 -17 36 -19 0 -7 -45 7 -65 21 -26 17 -16 17 29 -2z m73
-31 c-3 -3 -12 -4 -19 -1 -8 3 -5 6 6 6 11 1 17 -2 13 -5z m35 -8 c7 4 8 2 4
-5 -9 -13 -26 -5 -25 12 0 9 2 8 6 -1 2 -6 10 -9 15 -6z m48 -16 c0 -5 -4 -10
-9 -10 -6 0 -13 5 -16 10 -3 6 1 10 9 10 9 0 16 -4 16 -10z"/>
<path d="M1269 2970 c-30 -34 -64 -63 -78 -66 -91 -21 -101 -25 -107 -49 -5
-20 39 -257 62 -338 14 -45 17 -45 461 58 33 8 47 40 34 77 -8 23 -7 35 3 50
18 25 3 96 -24 119 -10 9 -23 31 -27 50 -6 22 -19 39 -36 47 -15 7 -27 19 -27
27 0 18 -37 38 -55 31 -7 -2 -16 2 -19 10 -7 18 -30 18 -46 -1 -12 -14 -17
-12 -45 15 -17 16 -34 30 -37 30 -4 0 -30 -27 -59 -60z m99 -6 c1 -1 -30 -22
-70 -48 -40 -25 -84 -54 -98 -64 -14 -9 8 17 48 58 39 41 72 78 72 84 0 5 10
1 23 -10 12 -10 23 -19 25 -20z m96 -56 c-3 -4 -15 -8 -27 -8 -12 0 -62 -11
-111 -24 -48 -14 -86 -22 -83 -19 3 3 48 29 99 58 l93 52 17 -25 c9 -14 15
-29 12 -34z m45 16 c3 -16 1 -17 -13 -5 -19 16 -21 34 -3 29 6 -3 14 -13 16
-24z m55 -62 c10 -37 -1 -52 -40 -52 -36 0 -74 -38 -74 -72 0 -60 47 -82 126
-59 31 9 32 8 38 -27 3 -20 2 -40 -2 -43 -11 -11 -413 -101 -426 -96 -10 4
-66 226 -70 276 -1 10 53 26 194 57 107 24 199 46 205 48 23 10 40 -1 49 -32z
m-397 -7 c-20 -19 -67 -31 -67 -16 0 13 35 29 63 30 16 1 17 -1 4 -14z m455
-85 c0 -16 1 -35 2 -41 1 -7 -25 -18 -57 -26 -54 -14 -60 -14 -78 3 -37 33
-15 70 51 83 76 15 80 14 82 -19z"/>
<path d="M1502 2761 c-23 -14 -10 -46 19 -49 30 -4 46 22 28 44 -13 16 -28 17
-47 5z m28 -21 c0 -5 -4 -10 -10 -10 -5 0 -10 5 -10 10 0 6 5 10 10 10 6 0 10
-4 10 -10z"/>
<path d="M4602 2967 c-6 -7 -26 -102 -43 -211 -31 -194 -32 -198 -13 -216 14
-12 59 -23 162 -38 78 -12 148 -19 156 -16 22 8 33 49 56 198 l21 139 -26 36
c-60 87 -64 89 -160 106 -110 18 -139 19 -153 2z m220 -76 c-10 -64 -9 -64 38
-74 25 -5 46 -10 48 -12 6 -6 -40 -280 -48 -289 -5 -5 -57 -1 -122 8 -186 28
-178 26 -178 50 0 40 52 361 61 371 6 8 39 6 108 -4 l99 -14 -6 -36z m53 -18
c32 -36 31 -40 -5 -35 -25 4 -30 9 -30 33 0 36 5 36 35 2z"/>
<path d="M4630 2778 c0 -12 27 -19 108 -32 129 -19 122 -19 122 -2 0 10 -24
17 -82 25 -46 7 -98 14 -115 18 -25 4 -33 2 -33 -9z"/>
<path d="M4620 2706 c0 -9 3 -16 8 -16 4 0 50 -7 102 -15 117 -18 120 -18 120
-2 0 9 -29 17 -92 26 -51 7 -103 15 -115 18 -17 4 -23 1 -23 -11z"/>
<path d="M4610 2636 c0 -9 13 -17 33 -20 17 -3 59 -10 91 -16 79 -13 109 -13
104 2 -3 7 -40 18 -84 25 -43 6 -94 15 -111 18 -25 4 -33 2 -33 -9z"/>
<path d="M1739 2543 c-13 -16 -12 -17 4 -4 9 7 17 15 17 17 0 8 -8 3 -21 -13z"/>
<path d="M4340 2183 c-38 -20 -60 -54 -60 -95 0 -16 -4 -28 -10 -28 -5 0 -10
-9 -10 -20 0 -16 -8 -19 -57 -22 l-58 -3 -3 -189 c-1 -104 2 -194 7 -199 10
-10 272 -14 289 -3 13 8 18 349 6 380 -5 12 -20 16 -59 16 -49 0 -53 2 -58 27
-10 55 63 91 126 62 21 -9 25 -20 31 -71 3 -34 6 -105 6 -158 0 -81 3 -100 18
-113 35 -32 82 -15 102 37 29 78 -3 202 -72 279 -24 25 -54 60 -68 77 -32 39
-81 48 -130 23z m111 -33 l24 -20 -35 6 c-19 4 -37 7 -40 6 -30 0 -43 -6 -69
-28 -39 -33 -41 -12 -2 27 36 35 87 39 122 9z m103 -134 c60 -96 41 -276 -25
-236 -11 7 -15 42 -19 150 -3 91 -2 139 5 137 6 -2 23 -25 39 -51z m-244 -7
c0 -19 -5 -29 -15 -29 -15 0 -22 50 -9 63 12 12 24 -4 24 -34z m-71 -27 c-40
-33 -20 -52 55 -52 72 0 90 16 56 50 -20 20 -20 20 30 20 l50 0 0 -180 0 -180
-135 0 -135 0 0 180 0 180 51 0 51 0 -23 -18z m101 -24 c0 -5 -23 -8 -51 -8
-27 0 -48 3 -46 8 3 4 26 7 51 7 25 0 46 -3 46 -7z"/>
<path d="M4190 1805 l0 -106 103 3 102 3 3 103 3 102 -106 0 -105 0 0 -105z
m190 -1 c0 -54 -4 -83 -10 -79 -5 3 -10 14 -10 24 0 10 -7 24 -15 31 -9 7 -12
22 -9 39 7 34 -14 54 -53 49 -25 -3 -28 -7 -28 -41 0 -21 -6 -41 -13 -46 -7
-4 -17 -21 -22 -37 -6 -22 -8 -8 -9 59 l-1 87 85 0 85 0 0 -86z m-64 35 c8
-14 -21 -43 -35 -35 -6 4 -11 16 -11 27 0 21 34 27 46 8z m14 -79 c32 -32 24
-40 -35 -40 -61 0 -73 16 -33 44 30 21 44 20 68 -4z"/>
<path d="M4194 1681 c-16 -16 9 -21 101 -21 63 0 105 4 105 10 0 6 -3 10 -7
10 -61 4 -196 4 -199 1z"/>
<path d="M1774 2146 c-18 -8 -35 -19 -39 -26 -4 -7 -21 -9 -44 -6 -26 4 -48
-1 -80 -17 -44 -22 -46 -25 -112 -182 -38 -88 -68 -170 -69 -181 0 -12 8 -31
18 -42 18 -21 202 -102 232 -102 27 0 56 39 90 122 l31 76 42 -28 c38 -25 44
-36 60 -97 44 -164 47 -171 82 -193 41 -25 49 -22 75 30 25 49 25 67 0 80 -17
9 -18 14 -8 36 11 23 9 29 -11 45 -18 15 -21 22 -12 33 6 7 10 35 10 62 -1 27
6 70 15 95 23 61 10 115 -39 158 -20 17 -40 31 -45 31 -5 0 -12 10 -15 23 -10
32 -45 67 -82 83 -40 17 -59 17 -99 0z m99 -27 c22 -13 56 -49 57 -61 0 -5
-12 -8 -27 -8 -16 0 -35 -4 -43 -9 -10 -7 -18 -4 -27 9 -7 10 -29 24 -48 30
-41 13 -44 23 -12 38 30 14 73 15 100 1z m-173 -55 c0 -13 -4 -24 -10 -24 -5
0 -14 -9 -20 -21 -14 -26 11 -69 40 -69 29 0 54 43 40 69 -6 12 -15 21 -20 21
-6 0 -10 7 -10 15 0 19 23 19 60 0 39 -20 42 -35 13 -66 -30 -32 -40 -96 -24
-147 11 -34 9 -44 -26 -127 -31 -71 -44 -91 -61 -93 -26 -4 -196 64 -213 84
-16 20 -5 62 59 214 56 132 58 136 102 156 51 25 70 22 70 -12z m23 -57 c4 3
7 0 7 -9 0 -20 -9 -28 -26 -21 -8 3 -14 14 -14 25 0 16 3 18 13 9 8 -6 17 -8
20 -4z m210 -5 c-2 -10 -19 -22 -36 -28 -35 -10 -48 -44 -27 -70 28 -32 68 -9
75 43 2 15 7 38 12 50 l8 23 28 -26 c52 -48 60 -103 25 -166 -19 -33 -20 -43
-11 -69 10 -26 9 -36 -4 -55 -15 -23 -14 -26 5 -47 14 -15 19 -30 15 -45 -4
-15 1 -30 14 -45 20 -21 20 -23 3 -50 l-17 -27 -23 87 c-40 153 -51 186 -60
177 -5 -5 6 -60 26 -129 38 -134 40 -142 20 -126 -7 6 -21 39 -31 74 -51 189
-52 191 -95 210 -117 54 -81 235 47 237 25 0 30 -3 26 -18z m-13 -67 c0 -8 -6
-15 -14 -15 -17 0 -28 14 -19 24 12 12 33 6 33 -9z"/>
<path d="M1566 1938 c-27 -66 -32 -88 -18 -88 8 0 62 125 62 143 0 4 -4 7 -8
7 -5 0 -21 -28 -36 -62z"/>
<path d="M1504 1784 c-8 -20 -14 -43 -12 -51 3 -13 147 -81 176 -83 34 -1 3
21 -70 51 -46 18 -84 33 -86 34 -1 1 5 18 13 38 18 43 18 47 4 47 -5 0 -17
-16 -25 -36z"/>
<path d="M2611 1541 c-19 -12 4 -28 89 -60 47 -18 88 -36 93 -40 9 -9 -101
-241 -114 -241 -4 0 -34 11 -65 25 -39 17 -61 22 -68 15 -14 -14 -2 -23 78
-54 63 -25 70 -26 86 -11 16 14 18 14 31 -1 8 -9 12 -28 11 -41 -4 -28 13 -53
37 -53 9 0 21 -10 26 -22 6 -13 21 -25 35 -26 13 -2 30 -13 38 -23 7 -10 24
-19 36 -19 13 0 29 -7 36 -15 16 -20 49 -19 72 2 17 15 21 15 54 0 43 -21 78
-22 94 -2 7 8 25 15 41 15 16 0 34 8 41 18 7 10 26 22 41 26 15 4 33 17 39 31
6 14 19 25 29 25 22 0 48 36 42 58 -2 10 5 22 17 30 17 11 23 10 37 -3 9 -9
23 -13 32 -10 9 4 40 16 69 28 48 18 73 40 60 52 -3 3 -32 -6 -66 -20 -34 -14
-66 -25 -70 -25 -10 0 -119 231 -113 240 1 3 44 22 95 42 50 20 91 43 91 50 0
19 -10 17 -119 -26 -67 -27 -100 -45 -104 -58 -6 -23 -15 -23 -115 3 -45 11
-95 18 -112 16 -16 -3 -70 -12 -120 -21 -122 -22 -161 -21 -167 2 -6 21 -199
103 -217 93z m610 -121 c41 -11 88 -20 104 -20 29 0 33 -6 70 -87 22 -48 41
-89 43 -93 1 -4 -8 -12 -22 -19 -22 -12 -33 -7 -160 79 -153 102 -156 103
-236 50 -82 -54 -108 -36 -49 33 29 34 53 51 87 61 63 20 76 19 163 -4z m-286
-52 c-41 -44 -43 -61 -13 -82 32 -23 60 -20 103 10 76 51 74 52 206 -37 130
-87 163 -114 154 -129 -12 -20 -46 -9 -115 35 -74 47 -90 53 -90 32 0 -7 32
-32 70 -56 39 -24 70 -50 70 -58 0 -30 -33 -24 -105 20 -41 26 -77 42 -80 37
-9 -15 0 -24 60 -61 30 -18 54 -38 52 -44 -7 -21 -46 -15 -90 14 -50 34 -67
38 -67 16 0 -8 18 -24 40 -35 42 -21 45 -40 7 -40 -40 1 -71 26 -72 56 0 20
-7 32 -22 39 -13 5 -23 17 -23 25 0 20 -20 40 -40 40 -8 0 -20 10 -25 23 -11
25 -49 34 -70 17 -11 -9 -18 -8 -30 4 -18 18 -51 21 -60 6 -8 -14 -26 -12 -48
4 -17 13 -15 19 29 107 l46 94 74 1 73 1 -34 -39z m-95 -205 c0 -20 -28 -53
-47 -53 -17 0 -17 20 3 48 18 26 44 29 44 5z m93 -6 c3 -7 -12 -33 -33 -57
-33 -38 -40 -42 -54 -31 -14 12 -12 18 20 57 37 45 58 54 67 31z m57 -54 c-1
-29 -55 -87 -74 -80 -22 9 -20 17 15 60 32 39 59 48 59 20z m50 -53 c0 -18
-32 -60 -46 -60 -24 0 -26 21 -3 46 23 25 49 32 49 14z"/>
<path d="M802 2975 c0 -16 2 -22 5 -12 2 9 2 23 0 30 -3 6 -5 -1 -5 -18z"/>
<path d="M1505 275 l0 -95 68 0 c55 0 67 3 67 16 0 13 -9 15 -50 12 l-50 -3 0
83 c0 71 -2 82 -17 82 -16 0 -18 -11 -18 -95z"/>
<path d="M1702 350 c-61 -51 -43 -142 33 -169 36 -12 45 -12 77 3 98 47 65
187 -44 186 -27 -1 -51 -8 -66 -20z m112 -25 c36 -36 26 -98 -19 -115 -67 -26
-126 59 -78 112 20 22 76 24 97 3z"/>
<path d="M1927 352 c-37 -41 -11 -82 61 -97 22 -5 32 -12 32 -26 0 -24 -37
-34 -74 -19 -32 12 -41 8 -33 -13 6 -17 66 -30 93 -21 29 11 54 35 54 54 0 24
-30 49 -68 56 -71 14 -65 57 7 53 35 -3 46 0 46 11 0 24 -97 26 -118 2z"/>
<path d="M2080 355 c0 -10 10 -15 33 -15 l32 0 -3 -80 c-3 -76 -3 -80 18 -80
21 0 21 4 18 80 l-3 80 33 0 c22 0 32 5 32 15 0 12 -16 15 -80 15 -64 0 -80
-3 -80 -15z"/>
<path d="M2384 344 c-4 -15 -2 -35 4 -45 10 -15 8 -20 -7 -29 -11 -5 -23 -19
-26 -31 -15 -45 64 -85 109 -55 22 14 26 14 37 0 10 -12 14 -12 20 -2 4 7 3
18 -2 24 -5 7 -7 24 -3 38 7 29 -9 36 -24 11 -7 -14 -11 -13 -27 6 -19 20 -19
21 -2 34 12 9 17 23 15 42 -3 25 -7 28 -45 31 -39 3 -43 1 -49 -24z m72 -5
c10 -17 -23 -46 -37 -32 -7 7 -9 19 -6 27 7 18 33 21 43 5z m14 -117 c2 -2 -2
-7 -10 -12 -43 -28 -94 8 -63 43 16 16 18 16 42 -5 14 -13 28 -24 31 -26z"/>
<path d="M2660 275 c0 -78 3 -95 15 -95 10 0 15 11 15 35 l0 35 50 0 c38 0 50
4 50 15 0 11 -12 15 -50 15 -49 0 -50 1 -50 30 0 30 1 30 55 30 42 0 55 3 55
15 0 12 -14 15 -70 15 l-70 0 0 -95z"/>
<path d="M2859 341 c-40 -40 -40 -89 0 -133 23 -26 37 -33 68 -33 52 0 90 26
102 70 20 72 -23 125 -99 125 -33 0 -48 -6 -71 -29z m130 -32 c18 -33 8 -74
-24 -95 -50 -33 -114 21 -99 82 8 32 31 44 74 41 25 -1 38 -9 49 -28z"/>
<path d="M3080 305 c0 -75 13 -108 47 -124 39 -18 63 -13 94 18 27 27 29 35
29 100 0 64 -2 71 -20 71 -18 0 -20 -7 -20 -75 0 -66 -2 -76 -21 -86 -16 -8
-28 -8 -45 0 -22 10 -24 16 -24 86 0 68 -2 75 -20 75 -18 0 -20 -7 -20 -65z"/>
<path d="M3310 275 c0 -90 1 -95 21 -95 20 0 21 4 17 65 -2 36 -1 65 2 64 3 0
24 -27 47 -59 23 -32 51 -64 62 -70 21 -10 21 -9 21 90 0 81 -3 100 -15 100
-10 0 -15 -16 -17 -65 l-3 -65 -50 64 c-27 36 -58 65 -67 66 -16 0 -18 -11
-18 -95z"/>
<path d="M3540 275 l0 -95 64 0 c55 0 69 4 95 26 43 36 44 93 2 135 -27 26
-36 29 -95 29 l-66 0 0 -95z m140 45 c44 -44 17 -99 -53 -110 l-47 -7 0 69 0
68 40 0 c27 0 47 -7 60 -20z"/>
<path d="M3852 358 c3 -7 17 -50 32 -96 37 -109 55 -111 88 -10 l25 73 22 -73
c18 -61 25 -72 44 -72 19 0 25 12 46 78 36 116 35 112 18 112 -11 0 -24 -24
-40 -76 -13 -42 -26 -73 -29 -68 -3 5 -14 40 -24 77 -15 55 -22 67 -38 65 -13
-2 -24 -23 -40 -72 -13 -38 -25 -65 -28 -60 -3 5 -14 37 -23 72 -14 49 -22 62
-37 62 -12 0 -18 -5 -16 -12z"/>
<path d="M4180 275 l0 -95 75 0 c62 0 75 3 75 16 0 13 -10 15 -55 12 -54 -3
-55 -3 -55 25 0 25 3 27 45 27 33 0 45 4 45 15 0 11 -12 15 -45 15 -41 0 -45
2 -45 25 0 24 3 25 55 25 42 0 55 3 55 15 0 12 -15 15 -75 15 l-75 0 0 -95z"/>
<path d="M4380 275 l0 -95 68 0 c54 0 72 4 85 18 23 25 21 48 -3 65 -18 13
-19 16 -5 27 20 17 19 43 -3 63 -13 12 -37 17 -80 17 l-62 0 0 -95z m123 53
c9 -27 -6 -38 -49 -38 -40 0 -44 2 -44 25 0 23 4 25 44 25 27 0 46 -5 49 -12z
m5 -95 c2 -14 -2 -23 -10 -24 -7 0 -30 -2 -50 -5 -37 -4 -38 -4 -38 26 0 31 0
31 48 28 40 -3 47 -6 50 -25z"/>
</g>
</svg>
